<svg
   class="logo logo-jaigansa"
   width="24"
   height="24"
   viewBox="0 0 24 24"
   version="1.1"
   id="svg307"
   xmlns="http://www.w3.org/2000/svg"
   xmlns:svg="http://www.w3.org/2000/svg">
  <defs
     id="defs311" />
  <path
     d="m 11.999952,2.0000245 c -5.5313366,0 -9.9999724,4.468636 -9.9999724,9.9999735 0,0.172862 0.0043,0.344575 0.0129,0.515232 1.4e-5,1.99e-4 -1.2e-5,5.92e-4 0,7.9e-4 0.00862,0.170409 0.021658,0.33978 0.038672,0.507811 4.43e-5,5.91e-4 -4.45e-5,0.001 0,0.0015 0.476259,4.71781 4.2052148,8.446765 8.9230224,8.923024 5.92e-4,0 10e-4,0 0.0017,0 0.167987,0.01694 0.337419,0.03009 0.50781,0.03867 0.170879,0.0087 0.342845,0.01295 0.515961,0.01295 5.531337,0 9.999975,-4.46864 9.999975,-9.999973 0,-5.5313365 -4.468638,-9.9999731 -9.999974,-9.9999731 z m 0,0.9999975 c 4.994634,0 8.999976,4.0053395 8.999976,8.999976 0,4.960824 -3.951809,8.94391 -8.899194,8.99763 0.464153,-2.281092 2.481061,-3.997644 4.899205,-3.997644 v -3.94e-4 c 0.28502,0 0.494651,-0.09658 0.61211,-0.183986 0.18509,-0.137741 0.400295,-0.658692 0.451951,-0.932027 0.05166,-0.273333 0.421782,-0.503723 0.473434,-0.60703 0.05166,-0.103301 -0.04504,-0.415304 -0.2,-0.486327 0.06497,-0.05566 0.279925,-0.192807 0.219532,-0.436718 -0.145254,-0.103808 -0.141625,-0.39046 -0.164454,-0.45742 -0.02282,-0.06696 0.07911,-0.111019 0.115627,-0.114064 0.0682,-0.02115 0.212902,-0.03239 0.483981,-0.231638 0.273712,-0.201191 0.08546,-0.538438 -0.0059,-0.690623 -0.09131,-0.152193 -0.316735,-0.627188 -0.636326,-1.001566 -0.319588,-0.374378 -0.307115,-0.666463 -0.237109,-0.873434 0.07001,-0.206973 0.05782,-0.639491 -0.161327,-0.904296 -0.219151,-0.2648035 -0.344139,-0.8550755 -0.344139,-0.8550755 0,0.0082 -0.207358,-0.317444 -0.187501,-0.470702 2.2e-4,0.117751 0.149657,0.449399 0.269529,0.417578 1.280621,-0.748363 -0.52509,-2.204072 -0.516793,-2.662885 -0.108303,0.164717 0.230667,0.567285 0.121094,0.585547 -0.493082,-0.84007 -2.552842,-1.2042953 -3.151164,-1.2042953 -0.598322,0 -0.839451,-0.3292951 -0.839451,-0.3292951 0,0 0.07875,0.2495355 0.499218,0.368359 -3.305841,-0.309913 -4.7328046,1.5789314 -4.5867056,1.9015674 -0.181821,-0.17264 -0.806325,-0.06162 -0.900779,-0.43008 0.0475,0.500215 0.756672,0.389181 0.75156,0.618749 -0.450907,0.05871 -0.574998,0.420313 -0.574998,0.420313 0,0 0.225185,-0.316471 0.480858,-0.304298 -1.540514,1.459473 -1.137895,3.8093845 -0.346875,5.1679585 0.600618,1.031553 1.4863916,1.872248 1.9523386,2.188272 -0.9407546,0.964074 -2.2307056,1.507572 -3.5777246,1.507811 -1.180456,0 -2.3363392,-0.348798 -2.9775935,-1.206497 -0.7331723,-0.980644 -1.0223951,-2.391366 -1.0223951,-3.79349 0,-4.9946365 4.0053416,-8.999976 8.9999752,-8.999976 z"
     id="path305" />
</svg>
